<svg id="Layer_1" enable-background="new 0 0 511.343 511.343" height="512" viewBox="0 0 511.343 511.343" width="512" xmlns="http://www.w3.org/2000/svg"><path d="m490.334 106.668h-415.997c-12.192 0-21.84 10.367-20.943 22.542l14.12 191.78c.812 11.027 10.008 19.459 20.925 19.459.964 0 136.927-8.011 360.458-21.147 9.162-.538 16.914-6.966 19.141-15.87l42.67-170.67c3.308-13.235-6.71-26.094-20.374-26.094z" fill="#ece2e2"/><path d="m149 362.671c-35.105 0-63.666 28.561-63.666 63.667s28.561 63.667 63.666 63.667c35.106 0 63.667-28.561 63.667-63.667s-28.561-63.667-63.667-63.667z" fill="#d8d6d6"/><path d="m383.667 362.671c-35.106 0-63.667 28.561-63.667 63.667s28.561 63.667 63.667 63.667 63.667-28.561 63.667-63.667-28.561-63.667-63.667-63.667z" fill="#d8d6d6"/><path d="m447.667 404.671h-298.525c-41.154 0-75.747-30.83-80.466-71.715-.049-.416 1.094 12.263-24.208-269.618h-23.468c-11.598 0-21-9.402-21-21s9.402-21 21-21h42.667c10.87 0 19.944 8.296 20.916 19.123l25.844 287.917c2.378 19.567 18.979 34.293 38.715 34.293h298.525c11.598 0 21 9.402 21 21s-9.402 21-21 21z" fill="#ccc"/></svg>